<svg xmlns="http://www.w3.org/2000/svg" viewBox="0 0 291.83 75.01"><defs><style>.cls-1{fill:#00b9b1;}</style></defs><g id="Capa_2" data-name="Capa 2"><g id="Capa_1-2" data-name="Capa 1"><path class="cls-1" d="M22.38,6.71,12.73,61.47H5L14.69,6.71H0L1.2,0h37L37,6.71Z"/><path class="cls-1" d="M72.15,61.47H64.42l1.19-6.83Q59.68,62.5,50.32,62.5T35.75,56.07A17.9,17.9,0,0,1,32,40.88a25.54,25.54,0,0,1,9.14-15.25A25.41,25.41,0,0,1,58,19.22q9.34,0,12.51,7.78l.82-4.57H79ZM67.49,44l1.11-6.24a11.16,11.16,0,0,0-2.6-7.3,11.38,11.38,0,0,0-9.27-4.36A16.15,16.15,0,0,0,46,30.33,17.57,17.57,0,0,0,39.9,40.88q-1.11,6.24,2.37,10.47a11.37,11.37,0,0,0,9.25,4.23,16.46,16.46,0,0,0,10.81-4.32A17.07,17.07,0,0,0,67.49,44Z"/><path class="cls-1" d="M114.48,49l6.88,2.69c-1.82,2-3.23,3.39-4.23,4.27a25.52,25.52,0,0,1-17,6.54q-9.27,0-14.57-6.43A18,18,0,0,1,81.8,40.84,25.52,25.52,0,0,1,91,25.63a25.41,25.41,0,0,1,16.83-6.41q9.34,0,14.52,6.32A31.81,31.81,0,0,1,125.16,30l-7.82,2.73c-.79-1.28-1.35-2.12-1.66-2.52a11.28,11.28,0,0,0-9.14-4.1,16.14,16.14,0,0,0-10.7,4.25,17.47,17.47,0,0,0-6.09,10.53q-1.06,6.24,2.39,10.49a11.27,11.27,0,0,0,9.19,4.25,16.44,16.44,0,0,0,10.8-4.32C112.45,51,113.23,50.25,114.48,49Z"/><path class="cls-1" d="M136.7,0h7.73l-4,22.43q2.34-2.14,8.5-2.14,7.38,0,11.12,4.53a13.2,13.2,0,0,1,2.67,11.06l-4.52,25.59h-7.69L155,36.22a7.55,7.55,0,0,0-1.52-6.59,7.13,7.13,0,0,0-5.7-2.63,10,10,0,0,0-6.45,2.48,12.81,12.81,0,0,0-2.61,2.86l-5.12,29.13h-7.73Z"/><path class="cls-1" d="M172.54,75h-8.33l14-21.87-8.89-30.71h8.33L184,44l14-21.57h8.33Z"/><path class="cls-1" d="M232.77,19.22q9.34,0,14.58,6.41T251,40.88a25.54,25.54,0,0,1-9,15.19,25.22,25.22,0,0,1-16.85,6.43q-9.27,0-14.57-6.43a17.94,17.94,0,0,1-3.76-15.19,25.61,25.61,0,0,1,9.15-15.25A25.41,25.41,0,0,1,232.77,19.22Zm-12,11.11a17.57,17.57,0,0,0-6.09,10.55q-1.11,6.24,2.37,10.47a11.37,11.37,0,0,0,9.25,4.23A16.32,16.32,0,0,0,237,51.35a17.36,17.36,0,0,0,6.11-10.47q1.11-6.29-2.39-10.55a11.36,11.36,0,0,0-9.23-4.27A16.15,16.15,0,0,0,220.79,30.33Z"/><path class="cls-1" d="M267.54,32.34l-5.13,29.13h-7.73l6.88-39h7.73q2.35-2.14,8.5-2.14,7.4,0,11.13,4.53a13.23,13.23,0,0,1,2.67,11.06l-4.53,25.59h-7.69l4.44-25.25a7.54,7.54,0,0,0-1.51-6.59A7.16,7.16,0,0,0,276.6,27a10,10,0,0,0-6.45,2.48A12.81,12.81,0,0,0,267.54,32.34Z"/></g></g></svg>