<svg xmlns="http://www.w3.org/2000/svg" viewBox="0 0 60 60"><defs><style>.cls-1{fill:#fff;}</style></defs><g id="Capa_2" data-name="Capa 2"><g id="Capa_1-2" data-name="Capa 1"><path id="FontAwsome_youtube_2" data-name="FontAwsome youtube 2" class="cls-1" d="M46.35,21.75a4.28,4.28,0,0,0-3-3C40.67,18,30,18,30,18s-10.67,0-13.34.72a4.28,4.28,0,0,0-3,3,48.29,48.29,0,0,0,0,16.53,4.2,4.2,0,0,0,3,3C19.33,42,30,42,30,42s10.67,0,13.34-.72a4.2,4.2,0,0,0,3-3,48.35,48.35,0,0,0,0-16.54ZM26.51,35.1V25L35.43,30Z"/><path class="cls-1" d="M30,2.31A27.69,27.69,0,1,1,2.31,30,27.69,27.69,0,0,1,30,2.31M30,0A30,30,0,1,0,60,30,30,30,0,0,0,30,0Z"/></g></g></svg>