<svg xmlns="http://www.w3.org/2000/svg" viewBox="0 0 60 60"><defs><style>.cls-1{fill:#fff;}</style></defs><g id="Capa_2" data-name="Capa 2"><g id="Capa_1-2" data-name="Capa 1"><path id="FontAwsome_twitter_2" data-name="FontAwsome twitter 2" class="cls-1" d="M41.74,24c0,.26,0,.53,0,.79,0,8-6.1,17.23-17.23,17.23a17.11,17.11,0,0,1-9.3-2.72,14.13,14.13,0,0,0,1.46.08,12.22,12.22,0,0,0,7.52-2.59,6.09,6.09,0,0,1-5.67-4.2,7.33,7.33,0,0,0,1.15.09,6.54,6.54,0,0,0,1.59-.2,6.05,6.05,0,0,1-4.85-5.95v-.07a6.06,6.06,0,0,0,2.73.77,6.06,6.06,0,0,1-1.87-8.1,17.18,17.18,0,0,0,12.49,6.33,6.41,6.41,0,0,1-.15-1.38,6.06,6.06,0,0,1,10.48-4.15A11.87,11.87,0,0,0,44,18.45a6,6,0,0,1-2.66,3.34,12.29,12.29,0,0,0,3.48-.94A12.69,12.69,0,0,1,41.74,24Z"/><path class="cls-1" d="M30,2.31A27.69,27.69,0,1,1,2.31,30,27.69,27.69,0,0,1,30,2.31M30,0A30,30,0,1,0,60,30,30,30,0,0,0,30,0Z"/></g></g></svg>