<svg xmlns="http://www.w3.org/2000/svg" viewBox="0 0 60 60"><defs><style>.cls-1{fill:#fff;}</style></defs><g id="Capa_2" data-name="Capa 2"><g id="Capa_1-2" data-name="Capa 1"><path id="FontAwsome_facebook-f_2" data-name="FontAwsome facebook-f 2" class="cls-1" d="M35.58,31.5l.67-4.34H32.08V24.34a2.18,2.18,0,0,1,2-2.36,2.57,2.57,0,0,1,.48,0h1.9v-3.7A23.83,23.83,0,0,0,33.06,18c-3.43,0-5.67,2.08-5.67,5.85v3.31H23.57V31.5h3.82V42h4.7V31.5Z"/><path class="cls-1" d="M30,2.31A27.69,27.69,0,1,1,2.31,30,27.69,27.69,0,0,1,30,2.31M30,0A30,30,0,1,0,60,30,30,30,0,0,0,30,0Z"/></g></g></svg>