<svg xmlns="http://www.w3.org/2000/svg" viewBox="0 0 60 60"><defs><style>.cls-1{fill:#fff;}</style></defs><g id="Capa_2" data-name="Capa 2"><g id="Capa_1-2" data-name="Capa 1"><path id="FontAwsome_instagram_2" data-name="FontAwsome instagram 2" class="cls-1" d="M30,23.85A6.15,6.15,0,1,0,36.16,30h0A6.15,6.15,0,0,0,30,23.85ZM30,34a4,4,0,1,1,4-4A4,4,0,0,1,30,34Zm7.84-10.4a1.44,1.44,0,1,1-1.43-1.44,1.43,1.43,0,0,1,1.43,1.44Zm4.08,1.45A7.13,7.13,0,0,0,40,20a7.16,7.16,0,0,0-5-1.93c-2-.12-7.92-.12-9.9,0A7.12,7.12,0,0,0,20,20a7.11,7.11,0,0,0-1.94,5C18,27,18,33,18.08,35A7.13,7.13,0,0,0,20,40a7.15,7.15,0,0,0,5,1.93c2,.12,7.92.12,9.9,0A7.1,7.1,0,0,0,40,40a7.17,7.17,0,0,0,1.94-5c.11-2,.11-7.92,0-9.9Zm-2.56,12a4,4,0,0,1-2.29,2.28c-1.58.62-5.33.48-7.07.48s-5.5.14-7.08-.48a4.07,4.07,0,0,1-2.27-2.28c-.63-1.58-.48-5.33-.48-7.08s-.14-5.5.48-7.07a4,4,0,0,1,2.28-2.28c1.58-.63,5.33-.49,7.07-.49s5.5-.13,7.08.49a4,4,0,0,1,2.28,2.28c.62,1.58.48,5.33.48,7.07S40,35.5,39.36,37.08Z"/><path class="cls-1" d="M30,2.31A27.69,27.69,0,1,1,2.31,30,27.69,27.69,0,0,1,30,2.31M30,0A30,30,0,1,0,60,30,30,30,0,0,0,30,0Z"/></g></g></svg>